# xmcd CD database file
#
# Track frame offsets:
#	150
#	14619
#	31886
#	54380
#	72086
#	89426
#	102412
#	121436
#	134317
#	147912
#	162308
#	179340
#	201751
#	219645
#	236799
#	249725
#	268520
#	281389
#
# Disc length: 3932 seconds
#
# Revision: 1
# Processed by: cddbd v1.5.2PL0 Copyright (c) Steve Scherf et al.
# Submitted via: CDex 1.81
#
DISCID=0e0f5a12
DTITLE=Joe Diorio - Timeless standards
DYEAR=2000
DGENRE=Jazz
TTITLE0=Summertime
TTITLE1=Just friends
TTITLE2=Stella by starlight
TTITLE3=Blue bossa
TTITLE4=Autumn leaves
TTITLE5=Blues
TTITLE6=Misty
TTITLE7=All the things you are
TTITLE8=There is no greater love
TTITLE9=Summer minus guitar
TTITLE10=Just minus
TTITLE11=Stella minus
TTITLE12=Blue minus
TTITLE13=Autumn minus
TTITLE14=Bkues minus
TTITLE15=Misty minus
TTITLE16=All the things minus
TTITLE17=No greater minus
EXTD=YEAR: 2000
EXTT0=
EXTT1=
EXTT2=
EXTT3=
EXTT4=
EXTT5=
EXTT6=
EXTT7=
EXTT8=
EXTT9=
EXTT10=
EXTT11=
EXTT12=
EXTT13=
EXTT14=
EXTT15=
EXTT16=
EXTT17=
PLAYORDER=
